<svg width="100" height="100" viewBox="0 0 100 100" fill="none" xmlns="http://www.w3.org/2000/svg">
<path d="M72.2266 82.1875H49.9609C47.0312 82.1875 44.6875 79.8438 44.6875 76.9141V25.9375H30.625V48.7891C30.625 51.7188 28.1348 54.0625 25.3516 54.0625H7.04102C4.55078 54.0625 2.5 52.0117 2.5 49.375C2.5 46.8848 4.55078 44.834 7.04102 44.834H21.25V21.9824C21.25 19.1992 23.5938 16.709 26.5234 16.709H48.7891C51.5723 16.709 54.0625 19.1992 54.0625 21.9824V72.959H68.125V50.1074C68.125 47.3242 70.4688 44.834 73.3984 44.834H91.5625C94.0527 44.6875 96.25 46.8848 96.25 49.375C96.25 52.0117 94.0527 54.0625 91.5625 54.0625H77.5V76.9141C77.5 79.8438 75.0098 82.1875 72.2266 82.1875Z" fill="url(#paint0_linear_4_412)"/>
<defs>
<linearGradient id="paint0_linear_4_412" x1="2.5" y1="16.709" x2="63.9763" y2="104.729" gradientUnits="userSpaceOnUse">
<stop stop-color="#039BE5"/>
<stop offset="1" stop-color="#E91E63"/>
</linearGradient>
</defs>
</svg>
